[img]http://img192.imageshack.us/img192/8907/postertt.jpg[/img]


[b][i]Also Known As: Ci Ling (Mandarin Title)
Year: 2009
Country: Taiwan, China
Director: Kevin Yin-Ping Chu
Genre: Romance, Sci-Fi
Runtime: 102 min
Language: Mandarin
Subtitles: English (srt)
Cast: Jay Chou, Chiling Lin, Daoming Chen, Eric Tsang, Chuhe Chen, Pu Miao, Kenneth Tsang, Liu Keng Hung, Shuyuan Ke, Xiaotong Guan
IMDB: [url]http://www.imdb.com/title/tt1328865[/url]
Theatrical Release Date: 12/30/2009[/i][/b]



[b][i]Synopsis/ Plot
Tells the story of young knight Qiao Fei (played by Jay Chou) for combating organized crime, no effort to protect treasures and desperate story.
In the desert, once gave birth to countless downtown 1:00 dynasty has evolved out of countless cultural legend. This piece witness the birth of numerous dynasties fall of the desert, a surprising number of buried treasures, these treasures in the desert, under a quiet slumber, no one can enter the door here to open the treasure, because, here are a group of mysterious guardian of They magical wand omnipotent, generations are guarding this stretch of desert, to protect those non-owners of the wealth. Their leader, called desert eagle (played by Chen Chu River). However, the desert will soon usher in Once Upon a quiet storm, as a record of a lost treasure map of the Millennium trace of the ancient city of warlords has raised the competition ...
[/i][/b]




[b][i]General Info:
Complete name                    : The.Treasure.Hunter.2009.DVDRip.H264.AAC-D34dLy.mp4
Format                           : MPEG-4
Format profile                   : Base Media
Codec ID                         : isom
File size                        : 349 MiB
Duration                         : 1h 41mn
Overall bit rate                 : 479 Kbps
Encoded date                     : UTC 2010-05-13 20:46:07
Tagged date                      : UTC 2010-05-13 20:46:07[/i][/b]

[b][i]Video Info:
ID                               : 1
Format                           : AVC
Format/Info                      : Advanced Video Codec
Format profile                   : High@L2.1
Format settings, CABAC           : Yes
Format settings, ReFrames        : 3 frames
Codec ID                         : avc1
Codec ID/Info                    : Advanced Video Coding
Duration                         : 1h 41mn
Bit rate mode                    : Variable
Bit rate                         : 414 Kbps
Maximum bit rate                 : 2 783 Kbps
Width                            : 624 pixels
Height                           : 256 pixels
Display aspect ratio             : 2.40:1
Frame rate mode                  : Constant
Frame rate                       : 25.000 fps
Resolution                       : 8 bits
Colorimetry                      : 4:2:0
Scan type                        : Progressive
Bits/(Pixel*Frame)               : 0.104
Stream size                      : 300 MiB (86%)
Title                            : Imported with GPAC 0.4.6-DEV (build 1)
Writing library                  : x264 core 80 r1376M 3feaec2
Encoding settings                : cabac=1 / ref=3 / deblock=1:-2:-1 / analyse=0x3:0x113 / me=umh / subme=5 / psy=1 / psy_rd=0.0:0.0 / mixed_ref=1 / me_range=12 / chroma_me=1 / trellis=1 / 8x8dct=1 / cqm=0 / deadzone=21,11 / fast_pskip=1 / chroma_qp_offset=0 / threads=3 / sliced_threads=0 / nr=0 / decimate=1 / mbaff=0 / constrained_intra=0 / bframes=16 / b_pyramid=0 / b_adapt=1 / b_bias=0 / direct=3 / wpredb=1 / wpredp=2 / keyint=250 / keyint_min=25 / scenecut=40 / rc_lookahead=40 / rc=2pass / mbtree=1 / bitrate=414 / ratetol=1.0 / qcomp=0.60 / qpmin=10 / qpmax=51 / qpstep=4 / cplxblur=20.0 / qblur=0.5 / ip_ratio=1.40 / aq=2:1.00
Encoded date                     : UTC 2010-05-13 20:46:07
Tagged date                      : UTC 2010-05-13 20:46:54[/i][/b]

[b][i]Audio Info:
ID                               : 2
Format                           : AAC
Format/Info                      : Advanced Audio Codec
Format version                   : Version 4
Format profile                   : LC
Format settings, SBR             : Yes
Format settings, PS              : No
Codec ID                         : 40
Duration                         : 1h 41mn
Bit rate mode                    : Variable
Bit rate                         : 64.0 Kbps
Maximum bit rate                 : 82.1 Kbps
Channel(s)                       : 2 channels
Channel positions                : Front: L R
Sampling rate                    : 44.1 KHz
Stream size                      : 46.6 MiB (13%)
Encoded date                     : UTC 2010-05-13 20:46:50
Tagged date                      : UTC 2010-05-13 20:46:54[/i][/b]


[b][i]Screenshots:[/i][/b]



[img]http://img163.imageshack.us/img163/6236/13650227.jpg[/img]

[img]http://img46.imageshack.us/img46/3884/39811522.jpg[/img]

[img]http://img255.imageshack.us/img255/5898/51665811.jpg[/img]

[img]http://img69.imageshack.us/img69/2034/61231806.jpg[/img]

[img]http://img17.imageshack.us/img17/1983/24584992.jpg[/img]

[img]http://img23.imageshack.us/img23/9576/d34dly1.jpg[/img]

